<?xml version="1.0" encoding="utf-8"?>
<!-- Generator: Adobe Illustrator 22.0.1, SVG Export Plug-In . SVG Version: 6.00 Build 0)  -->
<svg version="1.1" id="Layer_1" xmlns="http://www.w3.org/2000/svg" xmlns:xlink="http://www.w3.org/1999/xlink" x="0px" y="0px"
	 viewBox="0 0 138.8 139.9" style="enable-background:new 0 0 138.8 139.9;" xml:space="preserve">
<style type="text/css">
	.st0{fill:#EB3C80;}
</style>
<g>
	<g>
		<path class="st0" d="M69,137.1c-12.3,0-24.6,0-36.8,0c-14.6,0-26.7-9.8-29.5-24c-0.4-2.2-0.6-4.4-0.6-6.7
			C2,82.1,2.1,57.9,1.9,33.6C1.7,16.8,15,2.7,32.5,2.8c24.6,0.1,49.3,0.1,73.9,0c7.6,0,14.3,2.3,20.1,7.3
			c6.5,5.7,10.2,12.9,10.3,21.5c0.2,25.5,0.1,51.1,0.1,76.6c0,11.3-7.8,22.2-18.5,26.5c-4.1,1.7-8.3,2.3-12.7,2.3
			c-6.1,0-12.2,0-18.3,0C81.2,137,75.1,137,69,137.1C69,137,69,137.1,69,137.1z M19.1,69.7c0.2,7.7,0.3,15.1,0.6,22.6
			c0.1,3.4,0.8,6.8,2,10c2.5,6.9,7.2,11.9,13.9,14.9c4.9,2.2,10.2,2.8,15.5,2.9c9.5,0.1,19,0.2,28.6,0.1c5,0,10-0.2,14.9-0.7
			c4.7-0.4,9.2-1.9,13.1-4.6c7.6-5.1,11.1-12.5,11.7-21.3c0.5-6.7,0.5-13.5,0.5-20.3c0-8.8-0.2-17.6-0.5-26.3
			c-0.2-5.1-1.7-10-4.5-14.3c-3.7-5.7-9-9.2-15.5-11c-4.2-1.2-8.5-1.4-12.8-1.4c-12.8,0-25.6,0-38.4,0.1c-2.5,0-5.1,0.4-7.5,1
			C30.6,23.8,23.8,29.9,21,40c-0.7,2.5-1.2,5.1-1.3,7.7C19.3,55,19.2,62.5,19.1,69.7z"/>
		<path class="st0" d="M68.7,29.5c6.8,0,13.7,0,20.5,0c2,0,4,0.3,6,0.7c8.6,1.7,13.7,7.2,14.7,16c0.4,3.5,0.6,7.1,0.6,10.7
			c0,11.2-0.1,22.5-0.2,33.7c0,2.9-0.5,5.8-1.6,8.5c-1.8,4.9-5.1,8.4-10.1,10c-2.7,0.9-5.5,1.4-8.3,1.5c-9.2,0.3-18.4,0.4-27.7,0.4
			c-5.4,0-10.7-0.1-16.1-0.5c-4.3-0.3-8.3-1.6-11.6-4.5c-3.6-3.2-5.2-7.4-5.8-12c-0.3-2.6-0.5-5.2-0.5-7.8c0-12.1,0-24.1,0.1-36.2
			c0-2.1,0.3-4.3,0.8-6.4c1.7-7.3,6.4-11.8,13.7-13.3c2.8-0.6,5.8-0.8,8.6-0.9C57.5,29.3,63.1,29.4,68.7,29.5
			C68.7,29.4,68.7,29.4,68.7,29.5z M95.4,70.2c0-14.3-11.5-25.8-25.9-25.8c-14.5,0-25.8,11.3-25.9,25.7C43.5,84.4,55,95.9,69.4,95.9
			C83.9,95.9,95.4,84.5,95.4,70.2z M102.4,43.4c0-3.4-2.7-6-6.1-6c-3.5,0-6.1,2.7-6.1,6.2c0.1,3.4,2.7,6,6.2,5.9
			C99.9,49.5,102.4,46.8,102.4,43.4z"/>
		<path class="st0" d="M69.6,86.6c-8.9,0.2-16.6-7.2-16.7-16.2c-0.2-9,7.2-16.6,16.4-16.8c9-0.2,16.6,7,16.8,16.1
			C86.4,78.9,79,86.5,69.6,86.6z"/>
	</g>
</g>
</svg>
